<svg width="400" height="266" viewBox="0 0 400 266" fill="none" xmlns="http://www.w3.org/2000/svg">
<g clip-path="url(#clip0_8_42)">
<path d="M202.637 74.6524C199.07 68.7535 194.844 62.4553 188.225 60.5292C180.56 58.2986 172.686 62.7297 166.008 67.1023C146.034 80.1795 126.8 94.3514 108.392 109.553L108.412 109.782C122.743 108.794 137.074 107.806 151.406 106.817C161.76 106.103 172.47 105.291 181.621 100.392C185.093 98.5336 188.478 96.0508 192.412 95.8778C197.301 95.6628 201.563 99.0769 204.913 102.644C224.727 123.743 230.461 156.01 252.691 174.547C238.673 139.978 221.936 106.575 202.637 74.6524Z" fill="#F2F2F2"/>
<path d="M324.433 253.615C322.241 250.848 321.346 250.2 319.185 247.408C301.586 224.646 285.045 201.116 269.561 176.817C259.043 160.315 249.048 143.495 239.573 126.358C235.063 118.211 230.676 110 226.413 101.725C223.105 95.309 219.87 88.8545 216.71 82.3616C215.806 80.5071 214.928 78.644 214.054 76.7767C211.995 72.3856 209.974 67.9732 207.804 63.6418C205.331 58.705 202.321 53.5294 197.781 50.2127C195.715 48.6413 193.244 47.6905 190.657 47.4714C186.961 47.2327 183.55 48.7589 180.344 50.4258C156.888 62.657 134.928 77.9918 115.066 95.4412C95.1529 112.93 77.3537 132.688 62.0315 154.312C61.5627 154.981 60.4542 154.342 60.9274 153.668C62.7905 151.033 64.6904 148.427 66.6274 145.849C90.7115 113.818 120.242 86.273 153.87 64.4731C159.527 60.8068 165.291 57.3123 171.161 53.9899C174.12 52.3144 177.092 50.6603 180.114 49.1085C183.077 47.5865 186.223 46.218 189.608 46.1669C201.128 45.9878 207.092 59.0332 211.189 67.8112C212.476 70.5738 213.779 73.3278 215.098 76.0733C220.082 86.4969 225.257 96.8252 230.625 107.058C233.937 113.376 237.322 119.658 240.78 125.902C251.54 145.346 262.977 164.397 275.09 183.054C291.137 207.768 307.056 229.6 325.336 252.711C325.84 253.351 324.94 254.263 324.433 253.615Z" fill="#E4E4E4"/>
<path d="M113.928 88.9994C113.258 88.2534 112.593 87.5073 111.92 86.7612C106.608 80.8865 100.908 75.08 93.6134 71.7121C90.1354 70.0555 86.3386 69.1754 82.4864 69.1328C78.5046 69.1456 74.6124 70.1901 70.9332 71.6524C69.1938 72.3473 67.4927 73.136 65.8174 73.9758C63.9031 74.9393 62.023 75.9668 60.1516 77.0027C56.6386 78.9468 53.1712 80.976 49.7494 83.0906C42.9409 87.2984 36.3457 91.8273 29.9637 96.6774C26.6553 99.1928 23.4152 101.79 20.2434 104.471C17.2933 106.96 14.4029 109.517 11.5721 112.14C10.9668 112.699 10.0629 111.795 10.6683 111.236C11.4143 110.541 12.1689 109.851 12.9235 109.169C15.0551 107.242 17.2209 105.352 19.4208 103.499C23.4323 100.114 27.5477 96.8594 31.767 93.7358C38.3282 88.8758 45.1152 84.3454 52.1281 80.1447C55.6325 78.0472 59.1852 76.0378 62.7861 74.1165C63.8733 73.5367 64.9733 72.9697 66.0859 72.4326C68.6106 71.1591 71.2339 70.0912 73.9302 69.2394C77.7497 68.0038 81.7908 67.6068 85.7777 68.0756C89.6272 68.6355 93.336 69.9185 96.7086 71.857C103.871 75.8602 109.426 82.0504 114.831 88.0914C115.377 88.7052 114.478 89.6133 113.928 88.9994Z" fill="#E4E4E4"/>
<path d="M260.677 149.877L277.84 143.6L286.361 140.483C289.136 139.468 291.905 138.313 294.774 137.586C297.267 136.874 299.914 136.907 302.388 137.683C304.595 138.5 306.614 139.752 308.327 141.364C310.077 142.976 311.705 144.715 313.198 146.567C315.054 148.796 316.881 151.049 318.717 153.295C326.295 162.562 333.823 171.869 341.301 181.216C348.78 190.564 356.208 199.951 363.586 209.378C370.983 218.828 378.328 228.317 385.623 237.846C386.516 239.013 387.409 240.181 388.301 241.35C388.794 241.995 389.905 241.359 389.406 240.704C382.057 231.079 374.658 221.494 367.207 211.948C359.738 202.379 352.217 192.851 344.644 183.364C337.072 173.876 329.449 164.43 321.774 155.025C319.862 152.682 317.947 150.341 316.029 148.004C314.411 146.031 312.811 144.038 311.036 142.202C307.778 138.833 303.708 135.856 298.836 135.775C295.971 135.727 293.199 136.636 290.537 137.599C287.668 138.637 284.806 139.694 281.94 140.742L264.658 147.064L260.338 148.644C259.571 148.924 259.902 150.161 260.678 149.877L260.677 149.877Z" fill="#E4E4E4"/>
<path d="M91.3549 79.1043C82.6334 74.6218 71.4643 75.4998 63.4499 81.0999C78.7368 83.7372 93.8565 87.2661 108.732 91.6684C102.555 88.0485 97.7226 82.377 91.3549 79.1043Z" fill="#F2F2F2"/>
<path d="M63.364 81.0844L61.685 82.4492C62.2529 81.9715 62.8433 81.5237 63.4498 81.0999C63.4212 81.0949 63.3926 81.0894 63.364 81.0844Z" fill="#F2F2F2"/>
<path d="M307.681 149.94C305.991 147.883 304.165 145.73 301.638 144.895L299.279 144.988C317.238 176.722 341.493 204.451 370.555 226.473C349.597 200.962 328.639 175.451 307.681 149.94Z" fill="#F2F2F2"/>
<path d="M160.975 132.975C162.067 136.942 164.527 140.394 167.919 142.722C169.23 143.615 170.782 144.472 171.231 145.993C171.467 146.964 171.321 147.987 170.824 148.853C170.328 149.708 169.725 150.496 169.029 151.198L168.965 151.436C165.711 149.507 162.614 147.068 160.817 143.739C159.019 140.41 158.768 136.048 160.975 132.975" fill="#F2F2F2"/>
<path d="M269.331 227.379C270.423 231.346 272.882 234.799 276.274 237.126C277.586 238.019 279.138 238.876 279.586 240.398C279.822 241.368 279.677 242.391 279.18 243.258C278.684 244.113 278.081 244.9 277.384 245.602L277.321 245.84C274.066 243.911 270.97 241.472 269.172 238.143C267.374 234.814 267.123 230.452 269.331 227.379" fill="#F2F2F2"/>
<path d="M53.0847 220.869C54.1765 224.835 56.6361 228.288 60.0284 230.616C61.3399 231.508 62.8915 232.365 63.3402 233.887C63.5762 234.857 63.4308 235.881 62.9339 236.747C62.438 237.602 61.8345 238.39 61.1383 239.091L61.0747 239.329C57.8201 237.401 54.7239 234.961 52.9261 231.632C51.1283 228.304 50.8773 223.941 53.0847 220.869" fill="#F2F2F2"/>
<path d="M301.93 47.4346C315.029 47.4346 325.647 36.816 325.647 23.7173C325.647 10.6186 315.029 0 301.93 0C288.831 0 278.213 10.6186 278.213 23.7173C278.213 36.816 288.831 47.4346 301.93 47.4346Z" fill="#6C63FF"/>
<path d="M344.731 5.52026C333.236 3.96657 320.113 10.1794 317.134 21.3892C316.384 19.3961 315.019 17.6933 313.237 16.5267C311.455 15.3602 309.348 14.7903 307.221 14.8995C305.094 15.0086 303.057 15.7911 301.403 17.134C299.75 18.4768 298.567 20.3104 298.024 22.3699L299.34 23.3124C323.972 28.6391 349.47 28.5239 374.054 22.9746C366.058 14.5717 356.225 7.07392 344.731 5.52026Z" fill="#F0F0F0"/>
<path d="M295.436 37.1433C283.941 35.5897 270.819 41.8025 267.839 53.0123C267.089 51.0192 265.724 49.3164 263.942 48.1498C262.16 46.9833 260.053 46.4134 257.926 46.5226C255.799 46.6317 253.762 47.4142 252.109 48.757C250.455 50.0999 249.272 51.9335 248.729 53.993L250.045 54.9355C274.677 60.2622 300.176 60.1469 324.759 54.5977C316.763 46.1948 306.93 38.697 295.436 37.1433Z" fill="#F0F0F0"/>
<path d="M395.759 43.1228C395.711 43.1229 395.664 43.1156 395.618 43.101C272.657 4.21479 164.284 9.29985 95.0225 20.4133C85.5967 21.9251 76.1457 23.6713 66.932 25.6037C64.5797 26.0964 62.1394 26.6246 59.6788 27.1746C56.7403 27.829 53.8408 28.503 51.0605 29.1769C49.8598 29.4612 48.6825 29.7478 47.5286 30.0366C45.7808 30.4681 44.0074 30.9176 42.1063 31.4117C39.9821 31.9594 37.8237 32.5339 35.6899 33.1193C35.6821 33.1221 35.6742 33.1244 35.6661 33.1262L35.6663 33.1266C33.2562 33.7847 30.8587 34.4618 28.5403 35.138C27.2855 35.5004 26.0739 35.8579 24.9133 36.2107C24.7836 36.2466 24.6687 36.2811 24.5522 36.3165L24.3029 36.3924C24.1585 36.4364 24.0159 36.4796 23.8733 36.5204L23.8642 36.5232L23.8644 36.5236L23.487 36.6408C23.037 36.7771 22.5978 36.9101 22.1659 37.0427C10.7514 40.5615 4.4765 43.0647 4.41451 43.0892C4.35782 43.112 4.29721 43.1233 4.23615 43.1226C4.17508 43.1219 4.11475 43.1092 4.0586 43.0852C4.00245 43.0611 3.95157 43.0263 3.90888 42.9826C3.8662 42.939 3.83253 42.8873 3.80981 42.8306C3.78709 42.7739 3.77576 42.7133 3.77646 42.6522C3.77716 42.5912 3.78988 42.5309 3.8139 42.4747C3.83791 42.4185 3.87275 42.3677 3.91643 42.325C3.9601 42.2823 4.01176 42.2486 4.06845 42.2259C4.13089 42.2014 10.4365 39.6854 21.8925 36.1535C22.326 36.0205 22.7663 35.8874 23.2177 35.7507L23.5683 35.6417C23.5804 35.6372 23.5924 35.6335 23.6047 35.6299C23.7466 35.5895 23.8883 35.5463 24.0322 35.5027L24.282 35.4269C24.4065 35.3892 24.5291 35.352 24.6546 35.3174C25.8073 34.9668 27.023 34.6085 28.281 34.2448C30.6003 33.5681 33 32.891 35.412 32.232C35.4195 32.2293 35.4272 32.2274 35.4347 32.2252V32.2247C37.576 31.6375 39.7423 31.0607 41.8734 30.5112C43.7774 30.0166 45.5542 29.5661 47.305 29.1338C48.4637 28.8454 49.6433 28.5582 50.8437 28.2723C53.6271 27.5974 56.5325 26.9226 59.4763 26.2668C61.9407 25.7163 64.3851 25.1868 66.7412 24.6936C75.9693 22.758 85.435 21.0091 94.8751 19.495C164.236 8.36569 272.764 3.27243 395.899 42.2145C396.004 42.2479 396.095 42.3182 396.154 42.4125C396.212 42.5068 396.235 42.6189 396.218 42.7287C396.201 42.8384 396.146 42.9385 396.061 43.0108C395.977 43.0831 395.87 43.1228 395.759 43.1228Z" fill="#CCCCCC"/>
<path d="M122.302 195.245C122.141 194.774 121.87 194.348 121.511 194.003C121.379 193.88 121.236 193.77 121.083 193.673C119.87 192.864 118.056 192.682 116.903 193.673C116.786 193.773 116.679 193.884 116.582 194.003C116.238 194.426 115.884 194.84 115.521 195.245C114.926 195.924 114.317 196.579 113.68 197.216C113.498 197.393 113.317 197.575 113.131 197.751C113.024 197.858 112.917 197.96 112.81 198.063C112.401 198.453 111.982 198.83 111.559 199.202C111.336 199.402 111.113 199.597 110.885 199.788C110.545 200.072 110.206 200.355 109.862 200.63C109.829 200.653 109.797 200.676 109.764 200.704C109.755 200.709 109.75 200.718 109.741 200.723C109.736 200.723 109.732 200.723 109.727 200.732C109.714 200.737 109.703 200.745 109.694 200.755C109.592 200.825 109.522 200.872 109.471 200.914C109.49 200.904 109.508 200.89 109.527 200.881C109.443 200.946 109.355 201.011 109.271 201.076C108.457 201.676 107.625 202.253 106.774 202.792C104.668 204.14 102.457 205.314 100.161 206.303C100.007 206.364 99.8493 206.429 99.6912 206.489C93.6803 208.952 87.1599 209.913 80.6941 209.289C80.0337 209.238 79.3733 209.168 78.713 209.08C77.9503 208.968 77.1923 208.833 76.4389 208.68C73.5708 208.108 70.7645 207.26 68.0588 206.15C64.6743 204.6 61.4553 202.712 58.451 200.514C57.9859 200.183 57.5162 199.853 57.0465 199.532C57.5813 198.221 58.1068 196.909 58.6184 195.589C58.8742 194.952 59.1206 194.315 59.3625 193.673C61.2645 188.729 63.0503 183.739 64.7616 178.731C66.4916 173.657 68.1239 168.554 69.6586 163.422C69.8167 162.901 69.9702 162.38 70.119 161.859C70.9235 159.148 71.6955 156.43 72.4349 153.707C72.5046 153.442 72.5791 153.181 72.6442 152.916C72.8581 152.135 73.0673 151.354 73.272 150.572C73.737 148.81 72.686 146.703 70.8351 146.28C69.944 146.052 68.9989 146.178 68.1991 146.632C67.3993 147.087 66.8071 147.834 66.5474 148.717C66.3474 149.47 66.1475 150.219 65.9429 150.972C64.9616 154.614 63.9292 158.243 62.8457 161.859C62.6875 162.38 62.5294 162.901 62.3713 163.422C59.981 171.299 57.3566 179.098 54.4981 186.818C54.1539 187.753 53.8052 188.684 53.4517 189.613C53.2797 190.069 53.1076 190.524 52.9309 190.98C52.5914 191.878 52.2426 192.775 51.8938 193.673C51.6938 194.198 51.4892 194.724 51.2846 195.245C51.1498 195.575 51.0196 195.905 50.8893 196.231C49.5634 195.754 48.1897 195.424 46.7923 195.245L46.5691 195.217C45.4857 195.086 44.3901 195.096 43.3091 195.245C41.6912 195.433 40.1346 195.975 38.7492 196.832C37.3638 197.689 36.1835 198.839 35.2917 200.202C33.0734 203.695 33.1014 208.689 36.2125 211.656C39.4167 214.711 44.2671 214.688 48.0386 212.777C50.0373 211.696 51.7225 210.116 52.9309 208.191C53.3938 207.494 53.8192 206.772 54.2051 206.029C54.3028 206.094 54.4004 206.159 54.4981 206.229C54.8701 206.489 55.2422 206.754 55.6095 207.015C57.7502 208.566 60.006 209.951 62.3574 211.158C67.4133 213.672 72.8557 215.318 78.4572 216.027C78.5828 216.041 78.7037 216.06 78.8293 216.074C79.4478 216.153 80.0709 216.214 80.6941 216.265C89.6333 216.938 98.5834 215.109 106.541 210.982C107.216 210.633 107.884 210.267 108.546 209.884C109.573 209.289 110.578 208.657 111.559 207.987C112.094 207.624 112.615 207.257 113.131 206.871C115.387 205.209 117.489 203.349 119.414 201.313C120.144 200.546 120.843 199.754 121.511 198.937C122.143 198.269 122.507 197.392 122.534 196.472C122.531 196.052 122.452 195.637 122.302 195.245ZM45.2948 206.322C45.3925 206.252 45.4902 206.178 45.5832 206.103C45.5553 206.173 45.4204 206.252 45.2949 206.322H45.2948ZM46.7876 204.82C46.6807 204.941 46.583 205.062 46.4761 205.183C46.1507 205.547 45.8011 205.889 45.4297 206.206C45.3785 206.252 45.3228 206.299 45.2669 206.341C45.2663 206.341 45.2657 206.341 45.2651 206.341C45.2646 206.341 45.2641 206.341 45.2636 206.342C45.2632 206.342 45.2628 206.343 45.2626 206.343C45.2624 206.344 45.2623 206.345 45.2623 206.345C45.1951 206.375 45.1299 206.409 45.0669 206.448C44.867 206.568 44.6624 206.68 44.4531 206.782C44.0434 206.933 43.6218 207.05 43.1928 207.131C42.8632 207.155 42.5323 207.158 42.2023 207.14H42.193C41.9652 207.09 41.7402 207.028 41.5187 206.954C41.4071 206.899 41.3001 206.834 41.1931 206.768C41.1513 206.731 41.1141 206.694 41.0908 206.671C41.0454 206.629 41.0034 206.584 40.9653 206.536C40.9653 206.535 40.9652 206.535 40.965 206.534C40.9647 206.534 40.9644 206.533 40.964 206.533C40.9635 206.532 40.963 206.532 40.9624 206.532C40.9619 206.531 40.9613 206.531 40.9606 206.531C40.9095 206.438 40.8537 206.345 40.8025 206.252C40.7999 206.25 40.7982 206.247 40.7979 206.243C40.7607 206.127 40.7281 206.006 40.7002 205.885C40.6901 205.673 40.6917 205.46 40.7049 205.248C40.7673 204.951 40.8512 204.658 40.956 204.373C41.0502 204.171 41.1573 203.976 41.2769 203.787C41.2862 203.769 41.3327 203.694 41.3838 203.611C41.3885 203.606 41.3885 203.606 41.3885 203.601C41.4582 203.522 41.528 203.439 41.6024 203.364C41.728 203.225 41.8628 203.104 41.9977 202.978C42.26 202.807 42.5317 202.65 42.8115 202.509C43.2555 202.351 43.7111 202.228 44.1741 202.141C44.8569 202.087 45.5432 202.093 46.225 202.16C46.8707 202.272 47.5078 202.429 48.1316 202.63C47.7535 203.363 47.323 204.069 46.8435 204.741C46.8248 204.769 46.8063 204.797 46.7876 204.82ZM41.6163 203.29C41.5754 203.356 41.527 203.417 41.4722 203.471C41.5091 203.403 41.5579 203.341 41.6163 203.29Z" fill="#3F3D56"/>
<path d="M108.322 147.75C108.281 149.21 108.239 150.67 108.197 152.13C108.108 155.372 108.017 158.615 107.922 161.859C107.825 165.51 107.723 169.159 107.616 172.806C107.564 174.69 107.512 176.573 107.457 178.456C107.313 183.53 107.171 188.602 107.03 193.673C107.016 194.198 106.997 194.719 106.983 195.245C106.913 197.76 106.844 200.276 106.774 202.792C106.695 205.522 106.617 208.252 106.541 210.982C106.485 213.028 106.428 215.076 106.369 217.125C105.951 231.974 105.532 246.823 105.114 261.672C105.096 262.591 104.723 263.468 104.072 264.118C103.422 264.769 102.545 265.142 101.626 265.159C100.703 265.152 99.8202 264.782 99.1677 264.13C98.5152 263.477 98.1454 262.594 98.1379 261.672C98.3705 253.319 98.6061 244.967 98.8448 236.615C99.0541 229.063 99.2664 221.51 99.4819 213.958C99.5517 211.47 99.6214 208.98 99.6912 206.489C99.7981 202.741 99.9036 198.993 100.007 195.245C100.021 194.719 100.04 194.198 100.054 193.673C100.063 193.212 100.077 192.757 100.091 192.296C100.296 185.018 100.5 177.739 100.705 170.458C100.789 167.593 100.869 164.727 100.947 161.859C101.04 158.59 101.133 155.322 101.226 152.056C101.268 150.619 101.305 149.187 101.347 147.75C101.364 146.83 101.738 145.953 102.388 145.303C103.038 144.653 103.915 144.279 104.835 144.262C105.757 144.269 106.64 144.639 107.293 145.291C107.945 145.944 108.315 146.827 108.322 147.75Z" fill="#3F3D56"/>
<path d="M299.655 148.717C295.998 162.566 291.626 176.217 286.559 189.614C285.161 193.309 283.73 196.998 282.201 200.641L282.552 199.808C281.87 201.543 280.998 203.198 279.953 204.743C279.882 204.843 279.809 204.941 279.736 205.039C280.097 204.577 280.166 204.486 279.942 204.765C279.824 204.905 279.707 205.045 279.585 205.181C279.259 205.546 278.91 205.888 278.539 206.206C278.446 206.286 278.351 206.364 278.254 206.441L278.691 206.102C278.64 206.221 278.285 206.379 278.174 206.447C277.816 206.663 277.442 206.853 277.056 207.014L277.889 206.662C277.256 206.917 276.596 207.098 275.921 207.202L276.848 207.077C276.186 207.169 275.514 207.176 274.85 207.099L275.777 207.223C275.233 207.148 274.701 207.005 274.193 206.797L275.027 207.148C274.756 207.03 274.495 206.891 274.246 206.732C274.12 206.649 273.732 206.356 274.239 206.743C274.766 207.146 274.307 206.778 274.198 206.671C274.108 206.581 274.026 206.485 273.938 206.394C273.528 205.973 274.401 207.118 274.122 206.626C273.973 206.379 273.837 206.125 273.714 205.865L274.066 206.698C273.906 206.301 273.792 205.887 273.727 205.465L273.852 206.392C273.785 205.866 273.785 205.334 273.85 204.809L273.726 205.736C273.811 205.149 273.966 204.574 274.188 204.024L273.837 204.857C273.991 204.488 274.175 204.13 274.384 203.789C274.481 203.612 274.595 203.445 274.723 203.29C274.746 203.298 274.133 203.994 274.458 203.642C274.544 203.55 274.623 203.454 274.709 203.362C274.847 203.216 274.994 203.083 275.14 202.945C275.625 202.482 274.46 203.394 275.02 203.028C275.427 202.761 275.854 202.528 276.299 202.331L275.466 202.683C276.21 202.377 276.991 202.167 277.789 202.059L276.861 202.184C277.86 202.069 278.87 202.081 279.866 202.22L278.939 202.095C280.2 202.286 281.433 202.633 282.609 203.127L281.776 202.776C284.282 203.852 286.502 205.449 288.718 207.016C290.858 208.566 293.113 209.951 295.464 211.158C300.52 213.672 305.963 215.318 311.565 216.029C319.599 217.013 327.751 215.964 335.274 212.977C342.797 209.991 349.449 205.164 354.621 198.937C355.252 198.268 355.616 197.391 355.643 196.471C355.636 195.547 355.27 194.663 354.621 194.005C353.342 192.83 350.924 192.499 349.689 194.005C348.518 195.435 347.258 196.79 345.919 198.063C345.293 198.657 344.651 199.232 343.992 199.789C343.616 200.107 343.235 200.418 342.848 200.724C342.665 200.868 342.095 201.253 342.97 200.632C342.77 200.774 342.577 200.93 342.379 201.076C339.451 203.235 336.277 205.04 332.924 206.454L333.757 206.103C330.159 207.612 326.381 208.647 322.516 209.182L323.444 209.058C319.468 209.581 315.441 209.575 311.467 209.04L312.394 209.165C308.421 208.619 304.536 207.561 300.835 206.016L301.668 206.368C298.096 204.787 294.707 202.824 291.559 200.512C289.921 199.299 288.194 198.212 286.391 197.26C284.292 196.187 282.018 195.496 279.677 195.219C275.288 194.702 270.815 196.412 268.402 200.204C266.181 203.694 266.209 208.688 269.319 211.656C272.522 214.713 277.373 214.687 281.148 212.775C284.784 210.934 286.967 207.108 288.503 203.501C291.959 195.384 295.018 187.079 297.869 178.731C300.689 170.473 303.246 162.131 305.541 153.706C305.825 152.662 306.106 151.618 306.382 150.572C306.847 148.81 305.795 146.703 303.946 146.281C303.054 146.052 302.108 146.178 301.308 146.632C300.507 147.087 299.915 147.834 299.655 148.717L299.655 148.717Z" fill="#3F3D56"/>
<path d="M334.456 147.749L333.2 192.298L331.951 236.614L331.245 261.672C331.253 262.595 331.623 263.477 332.275 264.13C332.928 264.782 333.81 265.152 334.733 265.16C335.653 265.142 336.529 264.769 337.18 264.119C337.83 263.468 338.203 262.591 338.221 261.672L339.476 217.124L340.725 172.808L341.431 147.749C341.424 146.827 341.054 145.944 340.401 145.292C339.749 144.639 338.866 144.269 337.944 144.262C337.024 144.279 336.147 144.652 335.497 145.303C334.847 145.953 334.473 146.83 334.456 147.749Z" fill="#3F3D56"/>
<path opacity="0.2" d="M213.731 249.234H214.814V199.92H240.079V198.84H214.814V178.031H234.325C234.039 177.668 233.745 177.309 233.442 176.954H214.814V163.211C214.456 163.058 214.095 162.911 213.731 162.772V176.954H192.501V159.345C192.137 159.362 191.779 159.387 191.417 159.417V176.954H174.48V163.816C174.117 163.977 173.758 164.146 173.403 164.324V176.954H159.165V178.031H173.403V198.84H159.165V199.92H173.403V249.234H174.48V199.92C176.705 199.919 178.907 200.357 180.963 201.208C183.018 202.059 184.885 203.307 186.458 204.88C188.031 206.452 189.278 208.32 190.129 210.375C190.98 212.43 191.418 214.633 191.417 216.857V249.234H192.501V199.92H213.731V249.234ZM174.48 198.84V178.031H191.417V198.84H174.48ZM192.501 198.84V178.031H192.925C195.658 178.032 198.363 178.57 200.888 179.616C203.412 180.662 205.706 182.194 207.638 184.127C209.57 186.059 211.102 188.353 212.148 190.877C213.193 193.402 213.731 196.107 213.731 198.84H192.501Z" fill="black"/>
<path d="M207.117 234.448C205.753 240.53 202.487 246.02 197.792 250.12C197.448 250.417 197.104 250.706 196.746 250.99C195.877 251.069 195.013 251.149 194.156 251.231C193.444 251.296 192.742 251.366 192.045 251.431L191.919 251.445L191.831 250.683L191.477 247.595C190.106 245.356 189.256 242.838 188.991 240.227C188.725 237.615 189.05 234.977 189.943 232.509C191.17 229.198 193.393 226.272 195.579 223.37C198.597 219.362 201.531 215.4 201.638 210.512C203.123 212.412 204.358 214.496 205.312 216.711C204.412 217.135 203.603 217.73 202.931 218.464C202.741 218.674 202.55 218.967 202.68 219.218C202.792 219.432 203.071 219.483 203.313 219.511C203.894 219.571 204.48 219.632 205.061 219.692C205.526 219.743 205.991 219.79 206.456 219.841C207.019 221.687 207.4 223.584 207.596 225.505C207.909 228.493 207.747 231.511 207.117 234.448Z" fill="#3F3D56"/>
<path d="M222.556 222.259C219.812 224.254 218.208 227.123 216.962 230.286C215.684 230.695 214.535 231.429 213.627 232.416C213.437 232.625 213.246 232.918 213.376 233.169C213.488 233.383 213.767 233.434 214.009 233.462C214.59 233.522 215.176 233.583 215.757 233.643C214.511 237.382 213.367 241.252 211.163 244.409C209.697 246.494 207.786 248.227 205.568 249.483C204.963 249.827 204.339 250.136 203.699 250.408C201.336 250.59 199.019 250.783 196.746 250.99C195.876 251.069 195.013 251.149 194.156 251.231C193.444 251.296 192.742 251.366 192.045 251.431C192.04 251.176 192.04 250.92 192.045 250.664C192.192 243.851 194.698 237.299 199.136 232.127C199.346 231.886 199.56 231.648 199.778 231.411C202.027 229.01 204.671 227.012 207.596 225.505C212.204 223.109 217.369 221.988 222.556 222.259Z" fill="#6C63FF"/>
<path d="M194.96 248.846L194.426 250.427L194.156 251.231C193.444 251.297 192.742 251.366 192.045 251.431L191.919 251.445C191.147 251.524 190.38 251.603 189.612 251.683C189.412 251.45 189.212 251.213 189.017 250.971C184.163 245.093 181.833 237.532 182.536 229.942C183.239 222.351 186.919 215.347 192.77 210.461C192.156 213.674 192.872 216.753 194.049 219.808C193.923 219.859 193.802 219.911 193.686 219.966C192.786 220.39 191.977 220.986 191.305 221.72C191.114 221.929 190.924 222.222 191.054 222.473C191.166 222.687 191.445 222.738 191.686 222.766C192.268 222.826 192.854 222.887 193.435 222.947C193.9 222.998 194.365 223.045 194.83 223.096C195.049 223.119 195.267 223.143 195.486 223.166C195.518 223.236 195.546 223.301 195.579 223.371C196.904 226.245 198.332 229.132 199.136 232.127C199.338 232.879 199.497 233.641 199.611 234.411C199.969 237.012 199.737 239.66 198.932 242.159C198.127 244.658 196.769 246.943 194.96 248.846Z" fill="#6C63FF"/>
<path d="M241.771 181.396C237.768 173.587 231.565 167.016 224.27 162.188C216.952 157.366 208.555 154.43 199.826 153.64C198.682 153.536 197.535 153.475 196.385 153.458C195.027 153.437 174.591 159.332 167.745 164.145C160.902 168.9 155.274 175.197 151.313 182.527C147.359 189.898 145.415 198.179 145.674 206.539C146.013 214.949 148.357 223.157 152.512 230.478C156.609 237.775 162.427 243.96 169.46 248.496C176.593 253.047 183.758 265.115 192.179 265.541C200.665 265.97 210.341 254.587 218.08 251.13C225.819 247.645 232.509 242.193 237.484 235.317C242.319 228.578 245.446 220.767 246.599 212.554C247.796 204.144 247.238 195.471 244.366 187.434C243.629 185.368 242.762 183.352 241.771 181.396C240.943 179.766 238.518 179.166 236.999 180.145C236.217 180.626 235.65 181.391 235.417 182.28C235.184 183.169 235.302 184.113 235.748 184.917C236.234 185.874 236.686 186.847 237.103 187.836L236.752 187.003C238.333 190.805 239.408 194.798 239.95 198.879L239.825 197.952C240.401 202.38 240.391 206.865 239.794 211.291L239.919 210.363C239.316 214.789 238.135 219.115 236.406 223.233L236.757 222.4C235.868 224.501 234.831 226.536 233.655 228.491C233.059 229.479 232.426 230.443 231.757 231.385C231.463 231.798 231.161 232.204 230.855 232.608C230.457 233.136 231.398 231.918 230.987 232.436C230.917 232.525 230.847 232.613 230.777 232.701C230.565 232.965 230.351 233.227 230.134 233.486C228.684 235.216 227.102 236.83 225.401 238.315C224.978 238.685 224.547 239.046 224.11 239.399C223.892 239.575 223.676 239.758 223.449 239.922C223.458 239.916 224.183 239.364 223.754 239.684C223.619 239.785 223.485 239.887 223.349 239.988C222.447 240.656 221.521 241.29 220.571 241.89C218.384 243.268 216.089 244.468 213.709 245.477L214.542 245.126C210.437 246.854 206.122 248.035 201.708 248.638L202.636 248.513C198.224 249.109 193.754 249.117 189.34 248.537L190.268 248.661C186.257 248.123 182.333 247.062 178.597 245.506L179.43 245.858C177.266 244.944 175.18 243.857 173.191 242.607C172.207 241.987 171.249 241.328 170.316 240.631C170.183 240.532 170.051 240.431 169.918 240.331C169.492 240.01 170.224 240.568 170.23 240.572C169.982 240.394 169.744 240.204 169.516 240.002C169.065 239.635 168.622 239.26 168.185 238.876C166.439 237.338 164.808 235.673 163.305 233.896C162.929 233.451 162.561 233 162.201 232.542C162.045 232.344 161.761 231.942 162.389 232.788C162.307 232.677 162.221 232.568 162.137 232.457C161.937 232.191 161.739 231.923 161.544 231.653C160.861 230.708 160.212 229.74 159.597 228.749C158.206 226.505 156.992 224.156 155.967 221.723L156.318 222.556C154.64 218.563 153.492 214.367 152.905 210.076L153.029 211.003C152.499 207.047 152.492 203.039 153.007 199.081L152.882 200.008C153.41 196.176 154.442 192.429 155.949 188.866L155.597 189.699C156.546 187.469 157.664 185.314 158.943 183.255C159.584 182.225 160.262 181.22 160.979 180.24C161.142 180.017 161.307 179.796 161.473 179.576C161.624 179.377 162.038 178.881 161.331 179.756C161.401 179.671 161.467 179.582 161.536 179.496C161.929 178.997 162.332 178.507 162.745 178.024C164.306 176.196 165.998 174.483 167.806 172.899C168.263 172.498 168.727 172.106 169.199 171.723C169.413 171.548 169.628 171.376 169.845 171.205C169.932 171.137 170.02 171.07 170.107 171.001C169.178 171.74 169.848 171.202 170.059 171.044C171.031 170.316 172.029 169.625 173.052 168.97C175.327 167.515 177.721 166.253 180.207 165.199L179.374 165.551C182.983 164.035 198.972 160.459 201.88 160.849L200.953 160.725C205.227 161.321 209.404 162.476 213.378 164.158L212.545 163.806C214.559 164.661 216.516 165.644 218.405 166.75C219.348 167.303 220.274 167.886 221.18 168.499C221.609 168.79 222.033 169.086 222.453 169.39C222.663 169.541 222.872 169.695 223.079 169.85C223.195 169.936 223.309 170.023 223.424 170.109C223.908 170.471 222.759 169.585 223.265 169.985C224.961 171.317 226.571 172.755 228.087 174.288C228.831 175.046 229.55 175.828 230.243 176.635C230.598 177.048 230.947 177.468 231.288 177.894C231.457 178.105 232.034 178.871 231.327 177.933C231.5 178.162 231.675 178.39 231.845 178.621C233.315 180.61 234.62 182.716 235.748 184.917C236.582 186.543 238.997 187.15 240.52 186.168C241.302 185.686 241.869 184.922 242.102 184.033C242.335 183.144 242.217 182.199 241.771 181.396Z" fill="#3F3D56"/>
<path d="M201.131 238.315C200.771 238.332 200.414 238.237 200.11 238.044C199.805 237.852 199.567 237.57 199.428 237.237C199.289 236.905 199.256 236.537 199.332 236.185C199.409 235.833 199.592 235.513 199.857 235.268C199.901 235.092 199.933 234.966 199.977 234.79C199.961 234.751 199.945 234.713 199.929 234.675C198.311 230.816 187.985 241.573 187.538 245.199C187.341 246.802 187.424 248.427 187.783 250.002C184.438 242.706 182.701 234.775 182.69 226.749C182.69 224.734 182.801 222.722 183.025 220.72C183.211 219.079 183.467 217.45 183.796 215.832C185.589 207.055 189.438 198.829 195.027 191.828C198.224 192.007 201.026 191.52 201.296 185.324C201.344 184.222 202.162 183.268 202.342 182.183C202.037 182.223 201.726 182.248 201.421 182.268C201.326 182.273 201.226 182.278 201.131 182.283L201.095 182.284C200.76 182.299 200.427 182.217 200.137 182.047C199.848 181.878 199.613 181.628 199.462 181.328C199.311 181.029 199.25 180.691 199.286 180.358C199.322 180.024 199.453 179.708 199.665 179.447C199.797 179.285 199.928 179.123 200.06 178.961C200.261 178.711 200.466 178.465 200.666 178.215C200.689 178.191 200.711 178.166 200.731 178.14C200.961 177.855 201.191 177.575 201.421 177.29C201.001 176.638 200.436 176.092 199.77 175.694C197.464 174.343 194.282 175.279 192.616 177.365C190.945 179.451 190.63 182.378 191.21 184.984C191.781 187.202 192.725 189.307 194.002 191.208C193.877 191.368 193.747 191.523 193.622 191.683C191.335 194.623 189.343 197.78 187.672 201.109C188.145 197.417 182.365 184.084 180.13 181.26C177.445 177.868 171.94 179.349 171.467 183.649C171.463 183.69 171.458 183.732 171.454 183.773C171.786 183.961 172.111 184.16 172.429 184.37C172.828 184.637 173.138 185.018 173.317 185.464C173.496 185.91 173.536 186.399 173.432 186.868C173.328 187.337 173.085 187.764 172.734 188.092C172.384 188.421 171.942 188.636 171.467 188.709L171.419 188.716C166.975 195.061 181.221 211.576 184.786 207.868C183.108 212.624 182.055 217.578 181.655 222.606C181.428 225.572 181.441 228.552 181.695 231.516L181.68 231.411C180.887 224.955 167.295 215.357 163.326 216.156C161.04 216.617 158.787 216.512 159.135 218.819C159.14 218.855 159.146 218.892 159.152 218.929C159.768 219.18 160.367 219.469 160.948 219.795C161.28 219.982 161.604 220.181 161.922 220.391C162.322 220.658 162.631 221.039 162.81 221.485C162.989 221.931 163.03 222.42 162.926 222.889C162.822 223.358 162.579 223.785 162.228 224.113C161.878 224.442 161.436 224.657 160.961 224.73L160.912 224.737C160.877 224.742 160.847 224.747 160.812 224.752C158.79 231.712 173.791 242.945 182.91 239.371H182.915C183.819 243.298 185.129 247.121 186.823 250.778H200.781C200.831 250.623 200.876 250.462 200.921 250.307C199.629 250.389 198.332 250.311 197.059 250.077C198.094 248.806 199.13 247.526 200.165 246.255C200.189 246.231 200.21 246.206 200.23 246.18C200.756 245.53 201.286 244.884 201.811 244.234L201.812 244.233C201.84 242.239 201.611 240.251 201.131 238.315L201.131 238.315ZM185.147 206.872L185.154 206.862L185.147 206.882V206.872ZM182.055 234.743L181.935 234.473C181.94 234.278 181.94 234.083 181.935 233.883C181.935 233.828 181.925 233.773 181.925 233.718C181.97 234.063 182.01 234.408 182.06 234.753L182.055 234.743Z" fill="#3F3D56"/>
<path d="M44.295 209.27C47.1202 209.27 49.4105 206.98 49.4105 204.155C49.4105 201.33 47.1202 199.039 44.295 199.039C41.4698 199.039 39.1795 201.33 39.1795 204.155C39.1795 206.98 41.4698 209.27 44.295 209.27Z" fill="#3F3D56"/>
<path d="M105.681 265.076C108.506 265.076 110.796 262.786 110.796 259.96C110.796 257.135 108.506 254.845 105.681 254.845C102.856 254.845 100.565 257.135 100.565 259.96C100.565 262.786 102.856 265.076 105.681 265.076Z" fill="#3F3D56"/>
<path d="M338.669 265.076C341.494 265.076 343.784 262.786 343.784 259.96C343.784 257.135 341.494 254.845 338.669 254.845C335.843 254.845 333.553 257.135 333.553 259.96C333.553 262.786 335.843 265.076 338.669 265.076Z" fill="#3F3D56"/>
<path d="M351.225 199.969C354.05 199.969 356.34 197.679 356.34 194.854C356.34 192.029 354.05 189.738 351.225 189.738C348.4 189.738 346.109 192.029 346.109 194.854C346.109 197.679 348.4 199.969 351.225 199.969Z" fill="#3F3D56"/>
<path d="M336.343 152.535C339.169 152.535 341.459 150.245 341.459 147.419C341.459 144.594 339.169 142.304 336.343 142.304C333.518 142.304 331.228 144.594 331.228 147.419C331.228 150.245 333.518 152.535 336.343 152.535Z" fill="#3F3D56"/>
<path d="M122.888 194.854C122.885 196.161 122.379 197.416 121.476 198.361C120.573 199.305 119.342 199.866 118.037 199.928C116.731 199.99 115.452 199.547 114.464 198.692C113.476 197.837 112.854 196.635 112.728 195.335C112.602 194.034 112.98 192.735 113.785 191.705C114.59 190.676 115.76 189.996 117.052 189.805C118.345 189.614 119.662 189.927 120.73 190.68C121.798 191.433 122.535 192.568 122.79 193.849C122.856 194.18 122.888 194.517 122.888 194.854Z" fill="#3F3D56"/>
<path d="M225.198 167.416C228.023 167.416 230.313 165.126 230.313 162.301C230.313 159.476 228.023 157.185 225.198 157.185C222.372 157.185 220.082 159.476 220.082 162.301C220.082 165.126 222.372 167.416 225.198 167.416Z" fill="#3F3D56"/>
<path d="M174.508 162.301C174.505 163.607 173.999 164.863 173.096 165.807C172.193 166.752 170.962 167.313 169.657 167.375C168.351 167.437 167.072 166.994 166.084 166.139C165.096 165.284 164.474 164.082 164.348 162.782C164.222 161.481 164.6 160.182 165.405 159.152C166.21 158.123 167.38 157.442 168.672 157.252C169.965 157.061 171.282 157.374 172.35 158.127C173.418 158.88 174.155 160.015 174.41 161.296C174.476 161.627 174.508 161.964 174.508 162.301Z" fill="#3F3D56"/>
<path d="M108.471 147.419C108.468 148.726 107.963 149.982 107.06 150.926C106.157 151.871 104.925 152.432 103.62 152.494C102.315 152.555 101.036 152.113 100.048 151.258C99.0596 150.403 98.438 149.201 98.3116 147.9C98.1851 146.6 98.5635 145.3 99.3684 144.271C100.173 143.242 101.343 142.561 102.636 142.37C103.929 142.179 105.245 142.493 106.313 143.246C107.381 143.999 108.119 145.133 108.374 146.415C108.439 146.746 108.472 147.082 108.471 147.419Z" fill="#3F3D56"/>
<path d="M278.678 211.131C281.503 211.131 283.793 208.84 283.793 206.015C283.793 203.19 281.503 200.9 278.678 200.9C275.853 200.9 273.562 203.19 273.562 206.015C273.562 208.84 275.853 211.131 278.678 211.131Z" fill="#3F3D56"/>
<path d="M198.225 164.626C202.334 164.626 205.666 161.295 205.666 157.185C205.666 153.076 202.334 149.745 198.225 149.745C194.116 149.745 190.784 153.076 190.784 157.185C190.784 161.295 194.116 164.626 198.225 164.626Z" fill="#3F3D56"/>
<path d="M399.446 265.467L0.553717 265.61C0.481002 265.61 0.408996 265.595 0.341816 265.567C0.274635 265.54 0.213597 265.499 0.16218 265.447C0.110762 265.396 0.0699704 265.335 0.0421433 265.268C0.0143163 265.201 0 265.129 0 265.056C0 264.983 0.0143163 264.911 0.0421433 264.844C0.0699704 264.777 0.110762 264.716 0.16218 264.664C0.213597 264.613 0.274635 264.572 0.341816 264.544C0.408996 264.517 0.481002 264.502 0.553717 264.502L399.446 264.359C399.593 264.36 399.733 264.418 399.837 264.522C399.94 264.626 399.998 264.766 399.998 264.913C399.998 265.06 399.94 265.2 399.837 265.304C399.733 265.408 399.593 265.466 399.446 265.467Z" fill="#CACACA"/>
</g>
<defs>
<clipPath id="clip0_8_42">
<rect width="400" height="265.61" fill="white"/>
</clipPath>
</defs>
</svg>
