<svg width="708" height="525" viewBox="0 0 708 525" fill="none" xmlns="http://www.w3.org/2000/svg">
<g filter="url(#filter0_d_3_393)">
<g clip-path="url(#clip0_3_393)">
<path opacity="0.1" d="M11.5344 247.554C22.5879 290.272 45.9674 327.199 82.914 345.1C159.722 382.301 332.943 363.115 462.224 341.091C529.099 329.7 587.878 298.265 630.578 254.025L11.5344 247.554Z" fill="#6C63FF"/>
<path opacity="0.1" d="M689.478 46.4728H618.544C615.178 46.4728 612.416 43.9783 612.416 40.9302C612.416 37.8821 615.178 35.3812 618.544 35.3812H630.813C627.44 35.3812 624.685 32.8867 624.685 29.8322C624.685 26.7777 627.44 24.2896 630.813 24.2896H622.057C618.684 24.2896 615.922 21.7951 615.922 18.7406C615.922 15.6861 618.684 13.198 622.057 13.198H659.08C650.865 9.74256 641.262 7.28625 630.196 5.99445C529.239 -5.73352 493.196 2.02362 480.481 9.99711C464.633 20.0594 447.03 27.0414 428.593 30.5767C366.307 42.2029 249.823 56.1899 144.246 26.1223C91.772 11.1489 52.77 36.4184 29.3968 78.6595H701.798C700.92 66.3843 698.292 55.0445 693.468 45.1237C692.326 46.0057 690.922 46.4806 689.478 46.4728Z" fill="#6C63FF"/>
<path opacity="0.1" d="M5.52088 158.388C2.79631 183.232 3.72247 208.342 8.26992 232.918L631.055 253.529C648.199 235.749 662.764 215.652 674.327 193.827L5.52088 158.388ZM251.84 211.555H239.578C242.95 211.555 245.712 214.056 245.712 217.104C245.712 220.152 242.95 222.647 239.578 222.647H168.643C165.277 222.647 162.515 220.152 162.515 217.104C162.515 214.056 165.277 211.555 168.643 211.555H180.912C177.54 211.555 174.784 209.061 174.784 206.013C174.784 202.965 177.54 200.464 180.912 200.464H172.15C168.777 200.464 166.015 197.969 166.015 194.921C166.015 191.873 168.777 189.372 172.15 189.372H243.084C246.457 189.372 249.212 191.867 249.212 194.921C249.212 197.976 246.457 200.464 243.084 200.464H251.84C255.213 200.464 257.968 202.958 257.968 206.013C257.968 209.067 255.213 211.555 251.84 211.555Z" fill="#6C63FF"/>
<path opacity="0.1" d="M701.824 79.0413L21.8942 93.9955C13.6217 113.232 8.1363 134.983 5.60999 157.523H689.911C694.365 144.336 697.669 130.788 699.787 117.031C701.83 103.789 702.644 90.9792 701.824 79.0413ZM143.66 128.072H131.398C134.77 128.072 137.532 130.573 137.532 133.621C137.532 136.669 134.77 139.17 131.398 139.17H60.4635C57.0972 139.17 54.3355 136.669 54.3355 133.621C54.3355 130.573 57.0972 128.072 60.4635 128.072H72.7324C69.3597 128.072 66.6043 125.578 66.6043 122.53C66.6043 119.481 69.3597 116.981 72.7324 116.981H63.9698C60.5972 116.981 57.8354 114.486 57.8354 111.438C57.8354 108.39 60.5972 105.889 63.9698 105.889H134.904C138.277 105.889 141.032 108.383 141.032 111.438C141.032 114.492 138.277 116.981 134.904 116.981H143.66C147.033 116.981 149.788 119.481 149.788 122.53C149.788 125.578 147.033 128.072 143.66 128.072Z" fill="#6C63FF"/>
<path opacity="0.1" d="M350.863 497.042C507.953 497.042 635.299 485.327 635.299 470.875C635.299 456.424 507.953 444.708 350.863 444.708C193.773 444.708 66.4261 456.424 66.4261 470.875C66.4261 485.327 193.773 497.042 350.863 497.042Z" fill="#6C63FF"/>
<path d="M640.759 254.744C640.756 254.7 640.756 254.655 640.759 254.611C640.759 254.541 640.759 254.477 640.759 254.414C640.632 253.685 640.357 252.99 639.951 252.371C638.495 250.04 636.466 248.121 634.059 246.796C629.859 244.493 624.087 243.506 622.407 239.109C621.891 237.747 621.879 236.265 621.624 234.839C621.179 232.618 620.157 230.554 618.661 228.853C617.166 227.152 615.249 225.874 613.103 225.148C611.105 224.48 608.948 224.295 607.007 223.468C602.667 221.622 600.376 217.072 598.436 212.866C595.924 207.436 593.413 202.004 590.901 196.569C588.992 197.53 586.523 197.078 584.735 195.876C583.012 194.593 581.64 192.897 580.745 190.944C578.155 185.917 577.041 180.221 574 175.436C570.958 170.651 564.881 166.871 559.51 168.951C558.461 169.475 557.377 169.924 556.264 170.294C551.664 171.37 546.573 166.113 542.634 168.665C541.98 169.085 541.446 169.668 541.088 170.358C541.084 170.315 541.084 170.273 541.088 170.231C540.575 171.266 540.289 172.398 540.248 173.552C540.248 173.788 540.248 174.017 540.248 174.24C540.248 174.278 540.248 174.316 540.248 174.354C540.248 175.27 540.305 176.2 540.318 177.129C540.332 177.909 540.272 178.689 540.139 179.458V179.394C540.065 179.827 539.954 180.252 539.808 180.667C538.784 183.416 535.946 185.217 534.616 187.8V187.673C534.466 187.954 534.336 188.245 534.228 188.545C533.991 189.222 533.869 189.934 533.865 190.651C533.75 195.506 538.898 200.075 539.497 205.287C539.923 208.978 540.769 210.162 543.907 212.249L544.594 212.707C544.32 212.707 544.04 212.745 543.728 212.752C543.607 212.754 543.485 212.767 543.366 212.79C542.812 212.637 542.232 212.61 541.666 212.709C541.1 212.808 540.564 213.031 540.095 213.362C537.689 215.272 532 213.802 529.474 213.362C526.948 212.923 518.293 214.107 517.084 218.905C515.875 223.703 513.801 233.605 513.801 233.605C513.801 233.605 513.801 239.886 513.031 241.057C513.001 241.139 513.001 241.229 513.031 241.311C513.031 243.074 513.094 253.669 511.389 256.399C510.969 257.035 511.001 258.442 511.313 260.173C509.518 262.483 507.832 265.181 508.131 266.95C508.678 270.571 516.022 281.955 526.547 275.859C526.547 275.859 532.535 264.907 525.001 259.084L525.325 257.812C527.603 260.612 529.29 262.622 529.29 262.622C529.29 262.622 529.379 262.858 529.519 263.259H529.29C530.273 265.935 530.869 268.738 531.059 271.582C531.03 272.625 530.841 273.658 530.499 274.643H530.696C530.639 274.86 530.575 275.076 530.499 275.28C530.129 276.354 529.438 277.289 528.52 277.959C523.257 281.688 517.231 308.319 517.231 308.319C517.231 308.319 505.293 351.368 502.906 353.818C500.934 355.829 513.33 361.492 522.633 360.818C523.932 360.741 525.215 360.497 526.451 360.093C526.509 360.729 526.572 361.365 526.636 361.944C526.833 363.853 527.037 365.622 527.164 366.176C527.495 367.563 528.15 381.728 528.15 381.728C528.15 381.728 526.808 390.93 527.132 397.332C527.132 397.771 527.19 398.191 527.228 398.605L526.07 398.783C524.313 402.728 531.549 435.647 532.535 438.415C533.188 440.596 533.556 442.853 533.629 445.128C533.629 445.128 532.993 447.47 533.521 448.749C533.85 449.531 534.065 450.356 534.158 451.199C534.158 451.199 533.725 453.324 534.38 454.712C535.036 456.099 534.272 458.53 534.272 458.53C534.272 458.53 534.056 468.12 532.083 473.338C531.546 474.742 531.39 476.263 531.63 477.747C531.87 479.231 532.499 480.626 533.451 481.789C533.588 481.97 533.737 482.142 533.897 482.304C533.897 482.304 544.778 482.393 546.694 482.304H546.942C547.712 482.196 549.685 473.567 547.928 469.411C546.172 465.256 547.712 460.14 547.712 460.14V452.58C547.712 452.58 549.685 450.76 547.712 446.853C545.739 442.946 546.064 441.762 546.064 441.762C546.064 441.762 548.259 435.475 545.956 433.451C543.652 431.428 546.395 423.753 546.395 423.753L547.171 398.172C546.765 398.04 546.35 397.933 545.93 397.854C545.886 397.434 545.841 397.001 545.797 396.543C545.345 391.91 544.957 385.61 545.962 383.816C546.967 382.021 547.451 366.354 547.61 355.466L557.639 355.848C557.849 360.939 558.072 365.584 558.212 366.176C558.543 367.563 559.204 381.728 559.204 381.728C559.204 381.728 557.855 390.93 558.18 397.332C558.18 397.771 558.237 398.191 558.275 398.605L557.117 398.783C555.361 402.728 562.596 435.647 563.583 438.415C564.236 440.596 564.606 442.852 564.683 445.128C564.683 445.128 564.047 447.47 564.569 448.749C564.898 449.531 565.112 450.356 565.205 451.199C565.205 451.199 564.773 453.324 565.428 454.712C566.083 456.099 565.32 458.53 565.32 458.53C565.32 458.53 565.103 468.12 563.131 473.338C562.602 474.744 562.454 476.265 562.702 477.747C562.95 479.229 563.586 480.618 564.543 481.776C564.681 481.957 564.829 482.129 564.989 482.291C564.989 482.291 575.871 482.38 577.786 482.291H578.034C578.804 482.183 580.777 473.554 579.02 469.399C577.264 465.243 578.804 460.127 578.804 460.127V452.58C578.804 452.58 580.777 450.76 578.804 446.853C576.831 442.946 577.156 441.762 577.156 441.762C577.156 441.762 579.351 435.475 577.048 433.451C574.744 431.428 577.487 423.753 577.487 423.753L578.276 398.172C577.859 398.037 577.434 397.931 577.003 397.854C576.959 397.434 576.914 397.001 576.87 396.543C576.418 391.91 576.03 385.61 577.035 383.816C577.843 382.346 578.308 372.877 578.518 363.631C578.518 362.994 578.518 362.358 578.569 361.722C583.177 361.53 587.765 361.015 592.301 360.182C592.301 360.182 586.937 341.212 588.578 338.126C589.285 336.796 588.267 329.713 586.873 322.083C588.817 323.656 591.233 324.53 593.733 324.565C596.132 329.179 603.431 339.793 607.542 341.428C612.365 343.337 608.744 326.41 606.447 323.96C605.36 322.623 604.445 321.154 603.724 319.589C603.787 319.512 603.857 319.449 603.921 319.379C603.985 319.309 604.035 301.37 602.935 301.695C601.834 302.019 600.523 299.028 600.523 299.028L597.125 269.202L595.699 256.717C596.889 257.595 598.302 258.155 599.517 259.027C602.826 261.452 603.908 265.709 605.359 269.476C606.555 272.575 608.235 275.649 610.991 277.596C613.746 279.543 617.787 280.059 620.536 278.086C623.081 276.234 623.832 272.893 624.392 269.845C629.012 271.468 634.619 267.128 634.02 262.387C633.874 261.216 633.441 259.937 634.052 258.913C635.274 256.889 639.143 258.066 640.416 256.068C640.63 255.722 640.74 255.323 640.734 254.916C640.753 254.827 640.759 254.789 640.759 254.744ZM578.963 271.15C578.893 272.289 580.459 281.439 581.731 288.681C580.688 284.169 578.594 279.352 574.471 276.05C574.471 276.05 574.471 275.82 574.42 275.413H574.471C574.471 275.413 574.299 273.593 574.273 271.003C574.281 268.707 574.451 266.415 574.782 264.143V264.086H574.7C574.7 263.895 574.751 263.698 574.782 263.507C575.035 261.59 575.556 259.718 576.329 257.945C576.67 257.251 577.064 256.583 577.506 255.947C578.187 262.101 579.027 269.998 578.963 271.15ZM582.387 292.353C582.947 295.477 583.348 297.673 583.348 297.673L586.727 320.874V320.982C584.907 311.189 582.584 300.867 582.584 300.867C582.821 298.03 582.755 295.176 582.387 292.353Z" fill="url(#paint0_linear_3_393)"/>
<path d="M540.973 206.56C540.337 200.68 533.973 195.608 535.882 190.015C536.919 186.967 540.165 185.102 541.259 182.073C541.985 180.075 541.66 177.879 541.667 175.754C541.673 173.629 542.169 171.255 543.938 170.078C547.756 167.532 552.669 172.77 557.124 171.701C558.2 171.332 559.249 170.886 560.261 170.364C565.46 168.296 571.34 172.063 574.261 176.823C577.181 181.583 578.276 187.259 580.783 192.261C581.639 194.193 582.965 195.879 584.639 197.167C586.37 198.364 588.738 198.815 590.608 197.861L597.895 214.088C599.804 218.269 601.993 222.8 606.167 224.639C608.038 225.46 610.125 225.644 612.06 226.312C614.162 227.054 616.033 228.335 617.485 230.027C618.937 231.719 619.919 233.762 620.332 235.953C620.581 237.378 620.587 238.855 621.09 240.21C622.712 244.588 628.293 245.568 632.359 247.846C634.712 249.173 636.684 251.081 638.087 253.389C638.723 254.49 639.27 255.934 638.589 257.016C637.361 259.002 633.626 257.831 632.442 259.848C631.844 260.866 632.264 262.139 632.442 263.31C633.021 268.025 627.593 272.346 623.126 270.73C622.585 273.765 621.853 277.093 619.397 278.932C616.756 280.905 612.843 280.383 610.176 278.449C607.51 276.514 605.894 273.453 604.735 270.367C603.329 266.612 602.279 262.374 599.078 259.963C597.92 259.097 596.533 258.537 595.4 257.665C592.855 255.718 591.582 252.504 590.672 249.393C589.495 245.511 588.559 241.521 586.854 237.856C585.148 234.19 582.45 230.779 578.753 229.106C575.285 227.547 571.289 227.649 567.706 226.382C561.54 224.206 556.977 219.02 550.843 216.576C548.882 215.752 547.024 214.701 545.306 213.445C542.22 211.415 541.38 210.238 540.973 206.56Z" fill="#3F3D56"/>
<g opacity="0.1">
<path opacity="0.1" d="M541.546 180.826C541.677 180.577 541.792 180.32 541.889 180.056C542.608 178.058 542.29 175.862 542.297 173.737C542.296 173.028 542.362 172.321 542.494 171.624C541.907 172.882 541.621 174.259 541.66 175.646C541.654 177.358 541.858 179.152 541.546 180.826Z" fill="black"/>
<path opacity="0.1" d="M619.995 276.934C617.354 278.9 613.441 278.385 610.774 276.444C608.108 274.503 606.485 271.455 605.359 268.356C603.953 264.602 602.909 260.363 599.702 257.952C598.55 257.086 597.157 256.52 596.03 255.654C593.485 253.707 592.212 250.494 591.296 247.414C590.118 243.532 589.189 239.542 587.478 235.877C585.766 232.211 583.08 228.8 579.377 227.127C575.915 225.568 571.919 225.67 568.336 224.403C562.163 222.227 557.601 217.041 551.473 214.597C549.511 213.77 547.651 212.72 545.93 211.466C542.914 209.385 542.112 208.208 541.667 204.536C541.03 199.025 535.43 194.221 536.302 189.028C536.16 189.309 536.035 189.598 535.927 189.894C534.018 195.494 540.381 200.565 541.017 206.439C541.431 210.111 542.29 211.288 545.281 213.369C547.002 214.622 548.862 215.673 550.824 216.5C556.952 218.943 561.514 224.136 567.687 226.306C571.27 227.579 575.266 227.47 578.728 229.029C582.431 230.703 585.091 234.12 586.829 237.779C588.566 241.438 589.495 245.416 590.647 249.316C591.582 252.396 592.81 255.61 595.381 257.557C596.533 258.423 597.927 258.989 599.053 259.854C602.235 262.266 603.304 266.504 604.71 270.259C605.868 273.345 607.491 276.4 610.157 278.334C612.823 280.269 616.737 280.79 619.378 278.824C621.064 277.551 621.923 275.61 622.49 273.53C621.986 274.872 621.123 276.05 619.995 276.934Z" fill="black"/>
<path opacity="0.1" d="M633.072 257.85C632.829 258.306 632.723 258.824 632.767 259.339C634.205 257.92 637.45 258.754 638.583 256.927C638.846 256.476 638.949 255.949 638.876 255.432C637.399 256.832 634.154 255.998 633.072 257.85Z" fill="black"/>
<path opacity="0.1" d="M623.724 268.731C623.603 269.368 623.482 270.049 623.33 270.711C627.224 271.926 631.723 268.801 632.359 264.856C630.813 267.891 626.995 269.921 623.724 268.731Z" fill="black"/>
</g>
<path d="M549.195 209.621C549.195 209.621 551.314 213.897 545.058 213.986C538.803 214.075 549.086 241.757 549.086 241.757L559.484 254.993L572.421 247.993L573.166 228.686L574.12 217.022C574.12 217.022 562.03 213.095 564.257 207.903C566.484 202.71 549.195 209.621 549.195 209.621Z" fill="#FBBEBE"/>
<path d="M586.746 322.484C586.746 322.484 594.382 329.999 603.291 320.028L596.45 312.767H587.796L586.746 322.484Z" fill="#575A89"/>
<path opacity="0.1" d="M587.573 312.767L586.523 322.484C586.523 322.484 594.159 329.999 603.068 320.028" fill="black"/>
<path d="M600.421 314.091C600.421 314.091 603.495 322.153 605.722 324.59C607.949 327.028 611.449 343.891 606.784 341.982C602.12 340.073 593.211 325.863 592.677 323.426C592.142 320.989 591.938 314.091 591.938 314.091H600.421Z" fill="#FBBEBE"/>
<path d="M533.712 355.454L574.859 357.044L570.086 339.647L549.36 339.227L533.712 355.454Z" fill="#575A89"/>
<path opacity="0.1" d="M539.433 355.454L580.586 357.044L575.813 339.647L555.081 339.227L539.433 355.454Z" fill="black"/>
<path d="M547.177 384.172C546.204 385.986 546.579 392.26 547.018 396.899C547.298 399.852 547.604 402.124 547.604 402.124C547.604 402.124 532.223 406.896 529.894 402.76C529.302 401.71 529.01 399.871 528.908 397.714C528.59 391.35 529.894 382.18 529.894 382.18C529.894 382.18 529.258 368.079 528.94 366.698C528.812 366.144 528.615 364.388 528.424 362.485C528.144 359.66 527.877 356.516 527.877 356.516L548.876 345.38C548.876 345.38 548.876 347.467 548.838 350.681C548.724 360.773 548.386 381.945 547.177 384.172Z" fill="#FBBEBE"/>
<path opacity="0.1" d="M547.604 402.124C547.604 402.124 532.223 406.896 529.894 402.76C529.302 401.71 529.01 399.871 528.908 397.714C532.089 397.23 541.775 395.894 547.018 396.899C547.298 399.852 547.604 402.124 547.604 402.124Z" fill="black"/>
<path d="M548.132 482.304H547.89C546.038 482.374 535.513 482.304 535.513 482.304C535.359 482.143 535.215 481.973 535.08 481.795C534.15 480.63 533.536 479.245 533.296 477.774C533.056 476.303 533.2 474.795 533.712 473.395C535.621 468.196 535.831 458.651 535.831 458.651C535.831 458.651 536.576 456.214 535.939 454.833C535.303 453.452 535.723 451.333 535.723 451.333C535.625 450.495 535.411 449.674 535.087 448.896C534.559 447.623 535.195 445.287 535.195 445.287C535.122 443.024 534.765 440.78 534.132 438.606C533.178 435.85 526.178 403.078 527.877 399.152C527.877 399.152 542.723 396.606 548.348 398.515L547.604 423.97C547.604 423.97 544.95 431.606 547.177 433.623C549.405 435.64 547.286 441.896 547.286 441.896C547.286 441.896 546.967 443.06 548.876 446.986C550.786 450.913 548.876 452.714 548.876 452.714V460.242C548.876 460.242 547.394 465.332 549.086 469.469C550.779 473.605 548.876 482.17 548.132 482.304Z" fill="#3F3D56"/>
<path d="M577.27 384.172C576.297 385.986 576.672 392.26 577.111 396.899C577.391 399.852 577.697 402.124 577.697 402.124C577.697 402.124 562.316 406.896 559.987 402.76C559.395 401.71 559.103 399.871 559.001 397.714C558.683 391.35 559.987 382.18 559.987 382.18C559.987 382.18 559.351 368.079 559.033 366.698C558.861 365.953 558.562 358.852 558.326 352.482C558.129 347.047 557.97 342.135 557.97 342.135L578.97 345.38C578.97 345.38 578.97 354.614 578.709 364.102C578.48 373.303 578.053 382.734 577.27 384.172Z" fill="#FBBEBE"/>
<path opacity="0.1" d="M577.697 402.124C577.697 402.124 562.316 406.896 559.987 402.76C559.395 401.71 559.103 399.871 559.001 397.714C562.183 397.23 571.868 395.894 577.111 396.899C577.391 399.852 577.697 402.124 577.697 402.124Z" fill="black"/>
<path d="M578.225 482.304H577.983C576.131 482.374 565.606 482.304 565.606 482.304C565.452 482.143 565.308 481.973 565.173 481.795C564.243 480.63 563.629 479.245 563.389 477.774C563.15 476.303 563.293 474.795 563.805 473.395C565.714 468.171 565.905 458.625 565.905 458.625C565.905 458.625 566.65 456.188 566.013 454.807C565.377 453.426 565.797 451.307 565.797 451.307C565.699 450.469 565.485 449.649 565.161 448.87C564.633 447.597 565.269 445.262 565.269 445.262C565.196 442.999 564.839 440.754 564.206 438.58C563.252 435.825 556.252 403.053 557.951 399.126C557.951 399.126 572.797 396.581 578.422 398.49L577.678 423.944C577.678 423.944 575.024 431.58 577.251 433.598C579.479 435.615 577.36 441.87 577.36 441.87C577.36 441.87 577.041 443.035 578.95 446.961C580.86 450.887 578.95 452.688 578.95 452.688V460.216C578.95 460.216 577.468 465.307 579.16 469.443C580.853 473.58 578.97 482.17 578.225 482.304Z" fill="#3F3D56"/>
<path opacity="0.1" d="M557.467 214.622C565.726 214.622 572.421 207.927 572.421 199.668C572.421 191.409 565.726 184.714 557.467 184.714C549.208 184.714 542.513 191.409 542.513 199.668C542.513 207.927 549.208 214.622 557.467 214.622Z" fill="black"/>
<path d="M557.467 213.986C565.726 213.986 572.421 207.291 572.421 199.032C572.421 190.773 565.726 184.078 557.467 184.078C549.208 184.078 542.513 190.773 542.513 199.032C542.513 207.291 549.208 213.986 557.467 213.986Z" fill="#FBBEBE"/>
<path opacity="0.1" d="M527.877 356.516L548.876 345.38C548.876 345.38 548.876 347.467 548.838 350.681C545.771 352.514 541.145 355.269 536.697 357.872C534.279 359.291 531.918 360.665 529.894 361.817C529.424 362.072 528.932 362.285 528.424 362.453C528.144 359.66 527.877 356.516 527.877 356.516Z" fill="black"/>
<path opacity="0.1" d="M578.97 345.355C578.97 345.355 578.97 354.588 578.709 364.076H578.632C577.063 364.132 575.492 364.083 573.93 363.93C571.187 363.637 568.992 362.912 568.202 361.473C566.605 358.673 562.132 355.11 558.352 352.456C558.154 347.022 557.995 342.109 557.995 342.109L578.97 345.355Z" fill="black"/>
<path d="M575.062 264.481C574.53 268.623 574.428 272.809 574.757 276.972C584.404 284.927 582.603 301.682 582.603 301.682C582.603 301.682 590.029 335.625 588.438 338.698C586.848 341.772 592.04 360.652 592.04 360.652C587.614 361.491 583.133 362.006 578.632 362.192C577.063 362.248 575.492 362.199 573.93 362.046C571.187 361.753 568.991 361.028 568.202 359.59C565.237 354.397 552.402 346.653 552.402 346.653C552.402 346.653 544.269 351.527 536.697 355.963C534.278 357.382 531.918 358.756 529.894 359.908C528.252 360.779 526.437 361.277 524.581 361.365C515.576 362.033 503.581 356.395 505.49 354.397C507.825 351.954 519.388 309.108 519.388 309.108C519.388 309.108 525.217 282.591 530.308 278.881C531.2 278.207 531.866 277.277 532.217 276.215C533.96 271.372 531.046 263.609 531.046 263.609C531.046 263.609 514.609 243.354 515.347 242.183C516.085 241.012 516.092 234.763 516.092 234.763C516.092 234.763 518.109 224.9 519.273 220.127C520.438 215.354 528.819 214.183 531.256 214.61C533.693 215.036 539.204 216.519 541.533 214.61C543.862 212.701 547.795 215.354 547.795 215.354L557.454 218.014L566.141 212.923C566.141 212.923 574.846 213.369 575.59 214.533C576.335 215.698 587.789 217.931 587.789 217.931C593.618 221.851 593.408 240.522 593.408 240.522C593.408 240.522 579.409 252.714 576.545 258.976C575.803 260.735 575.304 262.587 575.062 264.481Z" fill="#575A89"/>
<path d="M590.239 237.938L593.421 240.484L596.711 270.074L599.995 299.773C599.995 299.773 601.267 302.744 602.33 302.426C603.393 302.108 603.285 320.028 603.285 320.028C603.285 320.028 591.105 312.538 586.739 322.484L583.341 298.5C583.341 298.5 578.989 274 579.097 272.091C579.205 270.182 576.87 249.501 576.87 249.501L590.239 237.938Z" fill="#575A89"/>
<path d="M517.695 239.319L515.36 242.183C515.36 242.183 515.576 254.484 513.769 257.455C511.962 260.427 518.758 277.819 521.303 276.756C523.849 275.693 529.576 248.546 529.576 248.228C529.576 247.91 517.695 239.319 517.695 239.319Z" fill="#575A89"/>
<path d="M517.485 256.819C517.485 256.819 510.059 264.347 510.587 267.955C511.115 271.563 518.223 282.897 528.405 276.807C528.405 276.807 537.848 259.046 517.485 256.819Z" fill="#575A89"/>
<path opacity="0.1" d="M547.89 482.323C546.038 482.393 535.513 482.323 535.513 482.323C535.359 482.162 535.215 481.992 535.08 481.814C537.772 480.898 543.588 479.523 547.89 482.323Z" fill="black"/>
<path opacity="0.1" d="M577.996 482.323C576.144 482.393 565.619 482.323 565.619 482.323C565.465 482.162 565.32 481.992 565.186 481.814C567.865 480.898 573.681 479.523 577.996 482.323Z" fill="black"/>
<path opacity="0.1" d="M537.448 295.789C535.825 311.354 536.359 342.243 536.697 355.963C534.278 357.382 531.918 358.756 529.894 359.908C528.252 360.779 526.437 361.277 524.581 361.365C523.906 357.216 533.248 314.6 537.448 295.789Z" fill="black"/>
<path opacity="0.1" d="M539.433 286.957C539.388 287.179 538.618 290.565 537.448 295.789C537.906 291.328 538.542 288.127 539.433 286.957Z" fill="black"/>
<path opacity="0.1" d="M565.269 285.277C565.269 285.277 574.286 341.912 547.585 348.912C547.578 348.886 566.058 346.08 565.269 285.277Z" fill="black"/>
<path opacity="0.1" d="M578.632 362.192C577.063 362.248 575.492 362.199 573.93 362.046L566.726 284.608C571.321 287.612 576.819 342.567 578.632 362.192Z" fill="black"/>
<path opacity="0.1" d="M546.331 190.237C546.809 190.199 547.29 190.249 547.75 190.384C548.425 190.72 549.034 191.178 549.545 191.733C550.374 192.426 551.367 192.898 552.428 193.104C553.49 193.31 554.587 193.243 555.615 192.91C556.341 192.586 557.111 192.371 557.9 192.274C559.115 192.274 560.165 193.165 560.795 194.183C561.425 195.201 561.75 196.41 562.291 197.498C562.832 198.586 563.697 199.617 564.887 199.885C565.458 199.907 566.019 200.036 566.542 200.266C566.862 200.527 567.108 200.867 567.254 201.253C568.247 203.397 569.036 205.93 571.155 206.98C571.935 207.341 572.784 207.526 573.643 207.521C574.517 207.585 575.392 207.427 576.189 207.063C576.972 206.625 577.619 205.98 578.06 205.198C579.383 203.009 579.536 200.298 579.224 197.759C578.835 194.556 577.695 191.49 575.896 188.812C574.001 186.103 571.42 183.946 568.418 182.561C565.417 181.176 562.101 180.612 558.81 180.928C557.661 181.057 556.523 181.269 555.405 181.564C551.358 182.646 547.387 184.669 544.931 188.061C544.337 188.908 543.684 189.712 542.977 190.467C544.091 190.358 545.211 190.263 546.331 190.237Z" fill="black"/>
<path d="M546.331 189.601C546.809 189.563 547.29 189.613 547.75 189.747C548.425 190.084 549.034 190.541 549.545 191.097C550.374 191.79 551.367 192.262 552.428 192.468C553.49 192.674 554.587 192.607 555.615 192.274C556.341 191.949 557.111 191.735 557.9 191.637C559.115 191.637 560.165 192.528 560.795 193.546C561.425 194.565 561.75 195.774 562.291 196.862C562.832 197.95 563.697 198.981 564.887 199.248C565.458 199.27 566.019 199.4 566.542 199.63C566.862 199.89 567.108 200.231 567.254 200.616C568.247 202.761 569.036 205.294 571.155 206.344C571.935 206.705 572.784 206.889 573.643 206.884C574.517 206.949 575.392 206.791 576.189 206.426C576.972 205.989 577.619 205.344 578.06 204.562C579.383 202.373 579.536 199.662 579.224 197.123C578.835 193.92 577.695 190.854 575.896 188.176C574.001 185.467 571.42 183.31 568.418 181.924C565.417 180.539 562.101 179.976 558.81 180.291C557.661 180.42 556.523 180.633 555.405 180.928C551.358 182.009 547.387 184.033 544.931 187.425C544.337 188.271 543.684 189.075 542.977 189.83C544.091 189.722 545.211 189.627 546.331 189.601Z" fill="#3F3D56"/>
<path opacity="0.1" d="M530.104 225.211C530.104 225.211 530.849 231.155 528.303 232.638C525.758 234.12 530.104 225.211 530.104 225.211Z" fill="black"/>
<path opacity="0.1" d="M584.086 271.245C584.086 271.245 590.131 262.336 590.984 264.882C591.836 267.427 584.086 271.245 584.086 271.245Z" fill="black"/>
<path opacity="0.1" d="M584.512 274.21C584.512 274.21 590.475 266.892 591.047 269.756C591.62 272.62 584.512 274.21 584.512 274.21Z" fill="black"/>
<path opacity="0.1" d="M567 265.499C564.837 265.529 562.727 264.835 561.005 263.526H560.483C558.698 265.157 556.353 266.039 553.935 265.989C552.678 266.018 551.428 265.792 550.261 265.323C549.094 264.855 548.034 264.155 547.146 263.265H546.452C544.62 264.757 542.319 265.552 539.956 265.509C537.594 265.466 535.323 264.588 533.547 263.03L531.059 262.985C531.059 262.985 533.973 270.749 532.229 275.591L574.757 276.349C574.428 272.185 574.53 267.999 575.062 263.857V263.8L572.727 263.755C571.047 264.92 569.044 265.53 567 265.499Z" fill="black"/>
<path opacity="0.1" d="M567 266.772C564.837 266.802 562.727 266.108 561.005 264.799H560.483C558.698 266.43 556.353 267.312 553.935 267.261C552.678 267.291 551.428 267.064 550.261 266.596C549.094 266.128 548.034 265.428 547.146 264.538H546.452C544.62 266.03 542.319 266.825 539.956 266.782C537.594 266.739 535.323 265.86 533.547 264.302L531.059 264.258C531.059 264.258 533.973 272.021 532.229 276.864L574.757 277.621C574.428 273.458 574.53 269.272 575.062 265.13V265.072L572.727 265.028C571.047 266.193 569.044 266.803 567 266.772Z" fill="black"/>
<path d="M567 266.135C564.837 266.166 562.727 265.471 561.005 264.162H560.483C558.698 265.794 556.353 266.675 553.935 266.625C552.678 266.654 551.428 266.428 550.261 265.96C549.094 265.492 548.034 264.791 547.146 263.902H546.452C544.62 265.394 542.319 266.189 539.956 266.146C537.594 266.103 535.323 265.224 533.547 263.666L531.059 263.622C531.059 263.622 533.973 271.385 532.229 276.228L574.757 276.985C574.428 272.822 574.53 268.636 575.062 264.493V264.436L572.727 264.392C571.047 265.557 569.044 266.166 567 266.135Z" fill="#3F3D56"/>
<path opacity="0.1" d="M565.11 223.703C565.11 223.703 574.063 224.276 574.121 225.549C574.178 226.821 565.11 223.703 565.11 223.703Z" fill="black"/>
<path opacity="0.1" d="M543.359 218.275C543.359 218.275 534.406 218.848 534.349 220.121C534.291 221.393 543.359 218.275 543.359 218.275Z" fill="black"/>
<path opacity="0.1" d="M577.576 244.296C577.487 244.232 577.398 244.181 577.309 244.124C579.6 246.186 579.218 250.691 576.405 254.407C573.592 258.123 569.322 259.67 566.726 258.003C566.809 258.073 566.879 258.149 566.968 258.219C569.513 260.166 573.968 258.639 576.908 254.795C579.848 250.952 580.134 246.249 577.576 244.296Z" fill="black"/>
<path opacity="0.1" d="M528.392 253.93C526.127 249.845 526.42 245.333 528.984 243.621C528.889 243.666 528.787 243.704 528.691 243.755C525.879 245.32 525.51 250.01 527.839 254.235C530.168 258.461 534.368 260.599 537.18 259.059C537.273 259.006 537.362 258.946 537.448 258.881C534.641 260.153 530.658 258.015 528.392 253.93Z" fill="black"/>
<path opacity="0.1" d="M531.421 219.478L530.6 220.751L528.507 219.637L529.608 217.944C530.336 218.288 530.961 218.817 531.421 219.478Z" fill="black"/>
<path d="M518.122 266.574C518.122 266.574 519.986 257.805 517.485 255.018C514.984 252.231 515.786 237.62 519.604 237.938C523.422 238.257 529.15 249.813 528.195 252.256C527.24 254.7 523.632 267.211 523.632 267.211L518.122 266.574Z" fill="#FBBEBE"/>
<path opacity="0.1" d="M577.996 203.308C577.556 204.09 576.908 204.735 576.125 205.173C575.329 205.537 574.453 205.695 573.58 205.631C572.721 205.636 571.871 205.451 571.092 205.09C568.972 204.034 568.183 201.501 567.191 199.363C567.065 198.977 566.841 198.631 566.542 198.357C566.026 198.123 565.472 197.987 564.906 197.956C563.716 197.689 562.857 196.652 562.31 195.57C561.763 194.488 561.438 193.292 560.814 192.255C560.191 191.217 559.134 190.307 557.919 190.346C557.128 190.451 556.357 190.676 555.635 191.014C554.605 191.344 553.508 191.409 552.447 191.202C551.386 190.995 550.394 190.523 549.564 189.83C549.053 189.275 548.445 188.818 547.769 188.481C547.309 188.346 546.828 188.297 546.35 188.335C545.618 188.335 544.893 188.405 544.161 188.462C543.799 188.937 543.41 189.392 542.997 189.824C544.11 189.728 545.23 189.633 546.35 189.607C546.828 189.569 547.309 189.619 547.769 189.754C548.445 190.09 549.053 190.548 549.564 191.103C550.394 191.796 551.386 192.268 552.447 192.475C553.508 192.682 554.605 192.617 555.635 192.287C556.357 191.949 557.128 191.723 557.919 191.618C559.134 191.618 560.184 192.509 560.814 193.527C561.444 194.546 561.769 195.755 562.31 196.843C562.851 197.931 563.716 198.962 564.906 199.229C565.472 199.26 566.026 199.396 566.542 199.63C566.862 199.89 567.108 200.231 567.254 200.616C568.247 202.761 569.036 205.294 571.155 206.344C571.935 206.705 572.784 206.889 573.643 206.884C574.517 206.949 575.392 206.791 576.189 206.426C576.972 205.989 577.619 205.344 578.06 204.562C579.048 202.763 579.49 200.715 579.332 198.669C579.284 200.303 578.824 201.899 577.996 203.308Z" fill="black"/>
<path d="M520.941 273.53C524.104 273.53 526.668 271.792 526.668 269.648C526.668 267.504 524.104 265.766 520.941 265.766C517.777 265.766 515.213 267.504 515.213 269.648C515.213 271.792 517.777 273.53 520.941 273.53Z" fill="#575A89"/>
<path d="M334.26 485.721C442.682 485.721 530.575 397.828 530.575 289.406C530.575 180.985 442.682 93.0919 334.26 93.0919C225.839 93.0919 137.946 180.985 137.946 289.406C137.946 397.828 225.839 485.721 334.26 485.721Z" fill="#6C63FF"/>
<path d="M437.267 388.06C437.267 419.051 388.548 390.707 336.316 390.707C284.084 390.707 231.254 417.88 231.254 386.889C231.254 369.218 248.092 344.642 272.248 326.792C290.448 313.34 312.796 303.705 335.247 303.705C358.334 303.705 380.95 314.135 398.99 328.453C421.759 346.506 437.267 370.764 437.267 388.06Z" fill="#444053"/>
<path d="M398.984 328.44C371.22 324.26 321.005 319.162 272.248 326.78C290.448 313.327 312.796 303.693 335.247 303.693C358.327 303.693 380.943 314.122 398.984 328.44Z" fill="#F6F8FB"/>
<path opacity="0.05" d="M231.254 150.828C231.254 150.828 172.118 188.634 172.601 247.77C173.085 306.906 231.254 150.828 231.254 150.828Z" fill="black"/>
<path d="M530.499 44.0546C530.499 44.0546 476.918 40.8283 483.237 78.3731C483.237 78.3731 481.964 85.0039 487.997 88.0202C487.997 88.0202 488.092 85.2393 493.488 86.1811C495.411 86.5029 497.366 86.5968 499.311 86.4611C501.939 86.2824 504.438 85.2501 506.425 83.5212C506.425 83.5212 521.488 77.304 527.349 52.6836C527.349 52.6836 531.682 47.3127 531.51 45.9382L522.468 49.7945C522.468 49.7945 525.554 56.3171 523.104 61.7388C523.104 61.7388 522.811 50.0363 521.074 50.2845C520.724 50.3418 516.378 52.5436 516.378 52.5436C516.378 52.5436 521.691 63.9088 517.651 72.1623C517.651 72.1623 519.172 58.1625 514.685 53.3644L508.322 57.0808C508.322 57.0808 514.533 68.8151 510.32 78.3922C510.32 78.3922 511.402 63.7052 506.985 57.9844L501.214 62.4834C501.214 62.4834 507.049 74.0523 503.492 81.9939C503.492 81.9939 503.027 64.8952 499.966 63.6034C499.966 63.6034 494.92 68.0578 494.15 69.8841C494.15 69.8841 498.146 78.2776 495.671 82.7066C495.671 82.7066 494.15 71.3159 492.903 71.2523C492.903 71.2523 487.876 78.7994 487.348 83.9793C487.348 83.9793 487.57 76.2795 491.681 70.5332C491.681 70.5332 486.819 71.3668 483.988 74.5231C483.988 74.5231 484.77 69.1842 492.897 68.7196C492.897 68.7196 497.052 62.9925 498.166 62.6488C498.166 62.6488 490.052 61.9679 485.133 64.1506C485.133 64.1506 489.46 59.1171 499.648 61.4016L505.375 56.7562C505.375 56.7562 494.697 55.2926 490.167 56.9089C490.167 56.9089 495.378 52.4545 506.909 55.6999L513.113 51.9899C513.113 51.9899 504.007 50.03 498.579 50.7172C498.579 50.7172 504.306 47.6309 514.927 50.9781L519.382 48.9864C519.382 48.9864 512.706 47.6755 510.753 47.4718C508.799 47.2682 508.697 46.7209 508.697 46.7209C512.936 46.0317 517.284 46.5363 521.252 48.1782C521.252 48.1782 530.658 44.6464 530.499 44.0546Z" fill="#6C63FF"/>
<path d="M475.543 27.3631C475.543 27.3631 451.362 25.8995 454.187 42.8647C454.187 42.8647 453.621 45.8619 456.338 47.2237C456.338 47.2237 456.376 45.951 458.82 46.3964C459.688 46.5393 460.57 46.582 461.448 46.5237C462.637 46.4389 463.766 45.9724 464.668 45.1937C464.668 45.1937 471.471 42.381 474.118 31.2576C474.118 31.2576 476.078 28.8331 476.027 28.2095L471.941 29.9531C471.941 29.9531 473.341 32.8994 472.241 35.3493C472.241 35.3493 472.107 30.0612 471.324 30.1885C471.165 30.1885 469.199 31.2067 469.199 31.2067C469.199 31.2067 471.604 36.342 469.791 40.0711C469.791 40.0711 470.478 33.7457 468.454 31.5758L465.578 33.2557C465.578 33.2557 468.384 38.5629 466.482 42.8901C466.482 42.8901 466.965 36.2529 464.973 33.6694L462.364 35.6993C462.364 35.6993 464.999 40.9238 463.395 44.5128C463.395 44.5128 463.185 36.7875 461.798 36.202C461.798 36.202 459.52 38.2129 459.17 39.0402C459.17 39.0402 460.977 42.8583 459.857 44.8373C459.857 44.8373 459.17 39.6893 458.584 39.6702C458.584 39.6702 456.313 43.0746 456.077 45.3973C456.187 43.2358 456.86 41.1406 458.031 39.3202C456.721 39.5679 455.514 40.194 454.556 41.121C454.556 41.121 454.906 38.7093 458.591 38.4993C458.591 38.4993 460.468 35.9157 460.971 35.7566C460.971 35.7566 457.305 35.4511 455.085 36.4375C455.085 36.4375 457.038 34.1594 461.645 35.1648L464.191 33.0712C464.191 33.0712 459.367 32.4348 457.318 33.1348C457.318 33.1348 459.673 31.124 464.884 32.5939L467.684 30.914C467.684 30.914 463.573 30.0294 461.117 30.3476C461.117 30.3476 463.707 28.954 468.505 30.4685L470.51 29.5649C470.51 29.5649 467.493 28.9731 466.615 28.884C465.737 28.7949 465.68 28.5467 465.68 28.5467C467.59 28.2289 469.551 28.4493 471.343 29.1831C471.343 29.1831 475.613 27.6304 475.543 27.3631Z" fill="#6C63FF"/>
<path opacity="0.1" d="M686.863 464.543C696.327 464.543 704 463.247 704 461.648C704 460.049 696.327 458.753 686.863 458.753C677.399 458.753 669.726 460.049 669.726 461.648C669.726 463.247 677.399 464.543 686.863 464.543Z" fill="#6C63FF"/>
<path opacity="0.1" d="M33.7622 512.709C43.2267 512.709 50.8992 511.413 50.8992 509.813C50.8992 508.214 43.2267 506.918 33.7622 506.918C24.2977 506.918 16.6252 508.214 16.6252 509.813C16.6252 511.413 24.2977 512.709 33.7622 512.709Z" fill="#6C63FF"/>
<path opacity="0.1" d="M133.243 516.342C142.708 516.342 150.38 515.046 150.38 513.447C150.38 511.848 142.708 510.552 133.243 510.552C123.779 510.552 116.106 511.848 116.106 513.447C116.106 515.046 123.779 516.342 133.243 516.342Z" fill="#6C63FF"/>
<path d="M649.356 497.004C663.488 497.004 674.944 495.066 674.944 492.676C674.944 490.287 663.488 488.349 649.356 488.349C635.225 488.349 623.769 490.287 623.769 492.676C623.769 495.066 635.225 497.004 649.356 497.004Z" fill="#6C63FF"/>
<path d="M659.933 485.607C661.101 484.653 661.952 483.369 662.376 481.922C662.688 480.465 662.065 478.709 660.671 478.174C659.105 477.576 657.432 478.664 656.165 479.759C654.899 480.853 653.442 482.1 651.781 481.871C652.635 481.098 653.274 480.116 653.635 479.022C653.997 477.928 654.068 476.759 653.843 475.629C653.77 475.16 653.572 474.721 653.27 474.356C652.398 473.427 650.826 473.821 649.783 474.553C646.474 476.882 645.551 481.375 645.532 485.422C645.201 483.965 645.481 482.444 645.475 480.968C645.468 479.491 645.055 477.786 643.795 477.003C643.013 476.586 642.135 476.379 641.249 476.405C639.76 476.348 638.106 476.494 637.088 477.582C635.815 478.938 636.152 481.203 637.253 482.673C638.354 484.143 640.021 485.098 641.555 486.122C642.789 486.856 643.842 487.859 644.635 489.056C644.727 489.224 644.804 489.401 644.864 489.584H654.186C656.272 488.523 658.205 487.186 659.933 485.607Z" fill="#6C63FF"/>
<path d="M41.7612 432.249C41.7612 432.249 45.2547 436.818 40.1448 443.703C35.0349 450.588 30.8223 456.43 32.5086 460.732C32.5086 460.732 40.2148 447.916 46.5083 447.731C52.8019 447.546 48.6592 439.955 41.7612 432.249Z" fill="#6C63FF"/>
<path opacity="0.1" d="M41.7611 432.249C42.0645 432.69 42.3044 433.172 42.4738 433.68C48.5955 440.871 51.8537 447.585 45.9738 447.75C40.4884 447.909 33.8831 457.709 32.3367 460.184C32.3908 460.376 32.4545 460.565 32.5276 460.751C32.5276 460.751 40.2339 447.935 46.5274 447.75C52.8209 447.565 48.6592 439.955 41.7611 432.249Z" fill="black"/>
<path d="M48.2583 438.071C48.2583 439.681 48.0737 440.986 47.851 440.986C47.6283 440.986 47.4501 439.713 47.4501 438.071C47.4501 436.429 47.6728 437.218 47.9019 437.218C48.131 437.218 48.2583 436.461 48.2583 438.071Z" fill="#FFD037"/>
<path d="M50.46 439.993C49.0473 440.763 47.8192 441.227 47.711 441.03C47.6028 440.833 48.6655 440.057 50.0782 439.287C51.4909 438.517 50.9309 439.077 51.0391 439.287C51.1473 439.497 51.8982 439.223 50.46 439.993Z" fill="#FFD037"/>
<path d="M23.2942 432.249C23.2942 432.249 19.8006 436.818 24.9042 443.703C30.0077 450.588 34.2267 456.43 32.5404 460.732C32.5404 460.732 24.8278 447.916 18.5407 447.731C12.2535 447.546 16.3898 439.955 23.2942 432.249Z" fill="#6C63FF"/>
<path opacity="0.1" d="M23.2942 432.249C22.988 432.688 22.7479 433.171 22.5815 433.68C16.4598 440.871 13.1953 447.585 19.0816 447.75C24.5606 447.909 31.1723 457.709 32.7122 460.184C32.6603 460.376 32.5987 460.565 32.5277 460.751C32.5277 460.751 24.8151 447.935 18.5279 447.75C12.2408 447.565 16.3898 439.955 23.2942 432.249Z" fill="black"/>
<path d="M16.7971 438.071C16.7971 439.681 16.9752 440.986 17.198 440.986C17.4207 440.986 17.5989 439.713 17.5989 438.071C17.5989 436.429 17.3761 437.218 17.1534 437.218C16.9307 437.218 16.7971 436.461 16.7971 438.071Z" fill="#FFD037"/>
<path d="M14.5635 439.993C15.9762 440.763 17.2107 441.227 17.3189 441.03C17.427 440.833 16.3643 440.057 14.9516 439.287C13.5389 438.517 14.0926 439.077 13.9907 439.287C13.8889 439.497 13.1508 439.223 14.5635 439.993Z" fill="#FFD037"/>
<path d="M17.9106 460.153C17.9106 460.153 27.685 459.853 30.6377 457.754C33.5904 455.654 45.6747 453.153 46.4065 456.481C47.1383 459.809 61.0935 473.217 50.0592 473.306C39.0248 473.395 24.4205 471.581 21.4806 469.793C18.5406 468.005 17.9106 460.153 17.9106 460.153Z" fill="#A8A8A8"/>
<path opacity="0.2" d="M50.2437 472.167C39.2094 472.256 24.6051 470.442 21.6651 468.654C19.4252 467.292 18.5343 462.399 18.2352 460.14H17.9106C17.9106 460.14 18.547 468.024 21.4679 469.812C24.3887 471.601 39.0121 473.414 50.0464 473.325C53.2282 473.325 54.3291 472.161 54.2718 470.487C53.8264 471.511 52.6173 472.148 50.2437 472.167Z" fill="black"/>
<path d="M264.465 263.666C268.201 263.456 285.783 262.132 296.951 255.763C298.745 254.707 300.771 254.111 302.85 254.025C306.401 253.924 310.486 255.406 307.871 263.704C303.633 277.278 279.025 292.55 263.753 291.704C249.066 290.889 231.642 284.971 220.137 264.162C219.035 262.16 218.492 259.899 218.565 257.614C218.699 253.414 220.226 248.152 228.111 254.019C238.763 261.942 258.974 263.443 263.027 263.666C263.506 263.692 263.986 263.692 264.465 263.666Z" fill="#444053"/>
<path d="M405.735 263.666C409.471 263.456 427.053 262.132 438.221 255.763C440.015 254.707 442.041 254.111 444.12 254.025C447.671 253.924 451.756 255.406 449.141 263.704C444.903 277.278 420.295 292.55 405.023 291.704C390.336 290.889 372.912 284.971 361.407 264.162C360.305 262.16 359.762 259.899 359.835 257.614C359.969 253.414 361.496 248.152 369.381 254.019C380.033 261.942 400.244 263.443 404.297 263.666C404.776 263.692 405.256 263.692 405.735 263.666Z" fill="#444053"/>
</g>
</g>
<defs>
<filter id="filter0_d_3_393" x="0" y="0" width="708" height="524.342" filterUnits="userSpaceOnUse" color-interpolation-filters="sRGB">
<feFlood flood-opacity="0" result="BackgroundImageFix"/>
<feColorMatrix in="SourceAlpha" type="matrix" values="0 0 0 0 0 0 0 0 0 0 0 0 0 0 0 0 0 0 127 0" result="hardAlpha"/>
<feOffset dy="4"/>
<feGaussianBlur stdDeviation="2"/>
<feComposite in2="hardAlpha" operator="out"/>
<feColorMatrix type="matrix" values="0 0 0 0 0 0 0 0 0 0 0 0 0 0 0 0 0 0 0.25 0"/>
<feBlend mode="normal" in2="BackgroundImageFix" result="effect1_dropShadow_3_393"/>
<feBlend mode="normal" in="SourceGraphic" in2="effect1_dropShadow_3_393" result="shape"/>
</filter>
<linearGradient id="paint0_linear_3_393" x1="571.715" y1="482.349" x2="571.715" y2="167.965" gradientUnits="userSpaceOnUse">
<stop stop-color="#808080" stop-opacity="0.25"/>
<stop offset="0.54" stop-color="#808080" stop-opacity="0.12"/>
<stop offset="1" stop-color="#808080" stop-opacity="0.1"/>
</linearGradient>
<clipPath id="clip0_3_393">
<rect width="700" height="516.342" fill="white" transform="translate(4)"/>
</clipPath>
</defs>
</svg>
